<svg width="30px" height="30px" viewBox="5 10 30 20" fill="none" xmlns="http://www.w3.org/2000/svg">
<path d="M8.09504 30.9791C7.42232 30.9791 6.85636 30.7495 6.39717 30.2903C5.93797 29.8311 5.70837 29.2648 5.70837 28.5915V11.4083C5.70837 10.735 5.93797 10.1687 6.39717 9.70954C6.85636 9.25035 7.42232 9.02075 8.09504 9.02075H31.905C32.5778 9.02075 33.1437 9.25035 33.6029 9.70954C34.0621 10.1687 34.2917 10.735 34.2917 11.4083V28.5915C34.2917 29.2648 34.0621 29.8311 33.6029 30.2903C33.1437 30.7495 32.5778 30.9791 31.905 30.9791H8.09504ZM20 19.6562L6.77087 10.8958V28.5833C6.77087 28.9721 6.89587 29.2916 7.14587 29.5416C7.39587 29.7916 7.71532 29.9166 8.10421 29.9166H31.8959C32.2848 29.9166 32.6042 29.7916 32.8542 29.5416C33.1042 29.2916 33.2292 28.9721 33.2292 28.5833V10.8958L20 19.6562ZM20 18.3541L32.5417 10.0833H7.45837L20 18.3541ZM6.77087 10.8958V10.0833V28.5833C6.77087 28.9721 6.89587 29.2916 7.14587 29.5416C7.39587 29.7916 7.71532 29.9166 8.10421 29.9166H6.77087V10.8958Z" fill="black"/>
</svg>
