<svg width="35" height="35" viewBox="0 0 35 35" fill="none" xmlns="http://www.w3.org/2000/svg">
<path d="M17.5 25.2839C20.2314 23.1442 22.2967 21.0892 23.6957 19.1188C25.0948 17.1484 25.7943 15.226 25.7943 13.3515C25.7943 11.8027 25.5111 10.4868 24.9447 9.40396C24.3782 8.3211 23.6764 7.44313 22.8392 6.77007C22.002 6.09702 21.0991 5.60555 20.1307 5.29565C19.1622 4.98576 18.2853 4.83081 17.5 4.83081C16.7148 4.83081 15.8379 4.98576 14.8694 5.29565C13.9009 5.60555 12.9974 6.09587 12.1589 6.7666C11.3204 7.43731 10.6216 8.31504 10.0625 9.39977C9.50351 10.4845 9.224 11.8013 9.224 13.3504C9.224 15.225 9.92122 17.1476 11.3156 19.1182C12.7101 21.0888 14.7715 23.144 17.5 25.2839ZM17.5 26.4871C14.401 24.132 12.0919 21.8683 10.5729 19.696C9.05384 17.5237 8.29431 15.4062 8.29431 13.3433C8.29431 11.7826 8.57079 10.4172 9.12374 9.24723C9.67669 8.07725 10.3902 7.09427 11.2642 6.29826C12.1383 5.50225 13.1277 4.90373 14.2325 4.50269C15.3372 4.10164 16.4249 3.90112 17.4957 3.90112C18.5664 3.90112 19.6541 4.10164 20.7588 4.50269C21.8636 4.90373 22.8544 5.50225 23.7314 6.29826C24.6084 7.09427 25.3264 8.07725 25.8855 9.24723C26.4445 10.4172 26.724 11.7826 26.724 13.3433C26.724 15.4053 25.9614 17.5221 24.4362 19.6935C22.9111 21.8649 20.599 24.1294 17.5 26.4871ZM17.5031 15.0391C18.0479 15.0391 18.5057 14.8558 18.8763 14.4892C19.247 14.1226 19.4323 13.6669 19.4323 13.122C19.4323 12.5772 19.2478 12.1194 18.8786 11.7488C18.5095 11.3781 18.0507 11.1928 17.5023 11.1928C16.9539 11.1928 16.4974 11.3774 16.1329 11.7465C15.7683 12.1157 15.586 12.5744 15.586 13.1228C15.586 13.6712 15.7693 14.1277 16.1359 14.4923C16.5025 14.8569 16.9583 15.0391 17.5031 15.0391ZM8.29431 31.0808V30.1511H26.724V31.0808H8.29431Z" fill="black"/>
</svg>
