<svg width="35" height="35" viewBox="0 0 35 35" fill="none" xmlns="http://www.w3.org/2000/svg">
<g style="mix-blend-mode:darken">
<mask id="path-1-inside-1_70_202" fill="white">
<path d="M17.5 0C7.84421 0 0 7.84421 0 17.5C0 20.6037 0.851177 23.5001 2.27072 26.0286L0.0282359 34.0341C-0.0446706 34.2947 0.0264021 34.5745 0.214885 34.7688C0.403367 34.9631 0.680872 35.0427 0.943653 34.9777L9.29093 32.9091C11.7437 34.2185 14.527 35 17.5 35C27.1558 35 35 27.1558 35 17.5C35 7.8442 27.1558 0 17.5 0ZM17.5 1.52174C26.3333 1.52174 33.4783 8.66666 33.4783 17.5C33.4783 26.3333 26.3333 33.4783 17.5 33.4783C14.6681 33.4783 12.0157 32.7399 9.71001 31.4498C9.54137 31.3555 9.34321 31.329 9.1557 31.3755L1.8457 33.187L3.80583 26.1935C3.86251 25.9938 3.83513 25.7796 3.73004 25.6006C2.32878 23.2245 1.52174 20.4599 1.52174 17.5C1.52174 8.66666 8.66666 1.52174 17.5 1.52174ZM11.1411 8.36957C10.6533 8.36957 9.95678 8.55103 9.38456 9.16759C9.04086 9.53792 7.6087 10.9333 7.6087 13.3866C7.6087 15.9442 9.38259 18.1512 9.59707 18.4347C9.57672 18.408 9.87079 18.8332 10.2613 19.3412C10.6519 19.8493 11.198 20.5166 11.8841 21.239C13.2563 22.6837 15.1857 24.3535 17.5803 25.3747C18.683 25.8443 19.553 26.1278 20.2121 26.3347C21.4336 26.7183 22.5461 26.66 23.3819 26.5368C24.0074 26.4447 24.6955 26.1443 25.3762 25.7135C26.0569 25.2827 26.7241 24.7471 27.0183 23.9332C27.2291 23.3498 27.3362 22.8106 27.375 22.3669C27.3943 22.1451 27.3968 21.9493 27.3824 21.768C27.368 21.5868 27.3834 21.4479 27.2145 21.1706C26.8602 20.589 26.4591 20.5738 26.0405 20.3666C25.8079 20.2515 25.1457 19.9282 24.4816 19.6117C23.8182 19.2956 23.2437 19.0156 22.89 18.8895C22.6665 18.8091 22.3936 18.6933 21.9998 18.7379C21.6061 18.7825 21.2172 19.0666 20.9908 19.4022C20.7762 19.7203 19.9123 20.7401 19.6489 21.0398C19.6489 21.0398 19.6682 21.0482 19.5642 20.9967C19.2384 20.8355 18.84 20.6984 18.2505 20.3875C17.6609 20.0765 16.9235 19.6172 16.1165 18.9058C14.9154 17.8484 14.074 16.5193 13.8086 16.0734C13.8265 16.0521 13.8065 16.0779 13.8443 16.0407C14.1155 15.7735 14.3574 15.4529 14.5605 15.2189C14.8486 14.8871 14.9757 14.5946 15.1134 14.3213C15.3878 13.7767 15.235 13.1773 15.0762 12.862C15.0872 12.8838 14.9903 12.6686 14.886 12.4221C14.7814 12.1749 14.648 11.8544 14.5056 11.5126C14.2207 10.8291 13.9026 10.0624 13.7135 9.61343C13.4907 9.08453 13.1892 8.70202 12.7951 8.5182C12.401 8.33437 12.0528 8.38663 12.0387 8.38593C11.7574 8.37296 11.4473 8.36957 11.1411 8.36957ZM11.1411 9.89131C11.4344 9.89131 11.7236 9.89488 11.9659 9.90617C12.215 9.91858 12.1995 9.9196 12.1516 9.89725C12.1029 9.87454 12.169 9.86717 12.3106 10.2034C12.4958 10.643 12.8155 11.4125 13.1012 12.0981C13.2441 12.4409 13.3778 12.7627 13.4846 13.015C13.5914 13.2674 13.6493 13.4083 13.7165 13.5426L13.7179 13.5455C13.7838 13.6755 13.778 13.5923 13.7551 13.6377C13.5945 13.9564 13.5727 14.0346 13.4103 14.2217C13.163 14.5066 12.9108 14.8243 12.7773 14.9558C12.6604 15.0706 12.4497 15.2494 12.3181 15.5993C12.1863 15.9498 12.2478 16.4306 12.4592 16.7896C12.7408 17.2676 13.6686 18.7777 15.1104 20.0471C16.0184 20.8476 16.8643 21.3773 17.5401 21.7338C18.2159 22.0903 18.7663 22.2985 18.8895 22.3594C19.182 22.5042 19.5016 22.6166 19.8733 22.572C20.2449 22.5273 20.5654 22.3018 20.7694 22.0712C21.0408 21.7634 21.849 20.8408 22.2361 20.273C22.2525 20.2788 22.2472 20.2743 22.3758 20.3206C22.4345 20.3415 23.1717 20.6723 23.8277 20.9848C24.4837 21.2974 25.1495 21.6223 25.3658 21.7294C25.678 21.8839 25.8255 21.9845 25.8636 21.985C25.8662 22.0519 25.8688 22.1245 25.8592 22.2346C25.8325 22.5402 25.7508 22.9632 25.5872 23.4161C25.5071 23.6377 25.0897 24.095 24.5633 24.4281C24.0369 24.7612 23.3962 24.9965 23.159 25.0314C22.4456 25.1365 21.5986 25.1749 20.6683 24.8828C20.0233 24.6804 19.219 24.4183 18.1776 23.9748C16.0656 23.0741 14.2706 21.5414 12.9883 20.1913C12.3471 19.5162 11.8335 18.8878 11.468 18.4124C11.1033 17.9379 10.944 17.691 10.8112 17.5163C10.5754 17.2046 9.13044 15.1952 9.13044 13.3866C9.13044 11.4724 10.0195 10.7217 10.5006 10.2034C10.7532 9.93125 11.0293 9.89131 11.1411 9.89131Z"/>
</mask>
<path d="M17.5 0C7.84421 0 0 7.84421 0 17.5C0 20.6037 0.851177 23.5001 2.27072 26.0286L0.0282359 34.0341C-0.0446706 34.2947 0.0264021 34.5745 0.214885 34.7688C0.403367 34.9631 0.680872 35.0427 0.943653 34.9777L9.29093 32.9091C11.7437 34.2185 14.527 35 17.5 35C27.1558 35 35 27.1558 35 17.5C35 7.8442 27.1558 0 17.5 0ZM17.5 1.52174C26.3333 1.52174 33.4783 8.66666 33.4783 17.5C33.4783 26.3333 26.3333 33.4783 17.5 33.4783C14.6681 33.4783 12.0157 32.7399 9.71001 31.4498C9.54137 31.3555 9.34321 31.329 9.1557 31.3755L1.8457 33.187L3.80583 26.1935C3.86251 25.9938 3.83513 25.7796 3.73004 25.6006C2.32878 23.2245 1.52174 20.4599 1.52174 17.5C1.52174 8.66666 8.66666 1.52174 17.5 1.52174ZM11.1411 8.36957C10.6533 8.36957 9.95678 8.55103 9.38456 9.16759C9.04086 9.53792 7.6087 10.9333 7.6087 13.3866C7.6087 15.9442 9.38259 18.1512 9.59707 18.4347C9.57672 18.408 9.87079 18.8332 10.2613 19.3412C10.6519 19.8493 11.198 20.5166 11.8841 21.239C13.2563 22.6837 15.1857 24.3535 17.5803 25.3747C18.683 25.8443 19.553 26.1278 20.2121 26.3347C21.4336 26.7183 22.5461 26.66 23.3819 26.5368C24.0074 26.4447 24.6955 26.1443 25.3762 25.7135C26.0569 25.2827 26.7241 24.7471 27.0183 23.9332C27.2291 23.3498 27.3362 22.8106 27.375 22.3669C27.3943 22.1451 27.3968 21.9493 27.3824 21.768C27.368 21.5868 27.3834 21.4479 27.2145 21.1706C26.8602 20.589 26.4591 20.5738 26.0405 20.3666C25.8079 20.2515 25.1457 19.9282 24.4816 19.6117C23.8182 19.2956 23.2437 19.0156 22.89 18.8895C22.6665 18.8091 22.3936 18.6933 21.9998 18.7379C21.6061 18.7825 21.2172 19.0666 20.9908 19.4022C20.7762 19.7203 19.9123 20.7401 19.6489 21.0398C19.6489 21.0398 19.6682 21.0482 19.5642 20.9967C19.2384 20.8355 18.84 20.6984 18.2505 20.3875C17.6609 20.0765 16.9235 19.6172 16.1165 18.9058C14.9154 17.8484 14.074 16.5193 13.8086 16.0734C13.8265 16.0521 13.8065 16.0779 13.8443 16.0407C14.1155 15.7735 14.3574 15.4529 14.5605 15.2189C14.8486 14.8871 14.9757 14.5946 15.1134 14.3213C15.3878 13.7767 15.235 13.1773 15.0762 12.862C15.0872 12.8838 14.9903 12.6686 14.886 12.4221C14.7814 12.1749 14.648 11.8544 14.5056 11.5126C14.2207 10.8291 13.9026 10.0624 13.7135 9.61343C13.4907 9.08453 13.1892 8.70202 12.7951 8.5182C12.401 8.33437 12.0528 8.38663 12.0387 8.38593C11.7574 8.37296 11.4473 8.36957 11.1411 8.36957ZM11.1411 9.89131C11.4344 9.89131 11.7236 9.89488 11.9659 9.90617C12.215 9.91858 12.1995 9.9196 12.1516 9.89725C12.1029 9.87454 12.169 9.86717 12.3106 10.2034C12.4958 10.643 12.8155 11.4125 13.1012 12.0981C13.2441 12.4409 13.3778 12.7627 13.4846 13.015C13.5914 13.2674 13.6493 13.4083 13.7165 13.5426L13.7179 13.5455C13.7838 13.6755 13.778 13.5923 13.7551 13.6377C13.5945 13.9564 13.5727 14.0346 13.4103 14.2217C13.163 14.5066 12.9108 14.8243 12.7773 14.9558C12.6604 15.0706 12.4497 15.2494 12.3181 15.5993C12.1863 15.9498 12.2478 16.4306 12.4592 16.7896C12.7408 17.2676 13.6686 18.7777 15.1104 20.0471C16.0184 20.8476 16.8643 21.3773 17.5401 21.7338C18.2159 22.0903 18.7663 22.2985 18.8895 22.3594C19.182 22.5042 19.5016 22.6166 19.8733 22.572C20.2449 22.5273 20.5654 22.3018 20.7694 22.0712C21.0408 21.7634 21.849 20.8408 22.2361 20.273C22.2525 20.2788 22.2472 20.2743 22.3758 20.3206C22.4345 20.3415 23.1717 20.6723 23.8277 20.9848C24.4837 21.2974 25.1495 21.6223 25.3658 21.7294C25.678 21.8839 25.8255 21.9845 25.8636 21.985C25.8662 22.0519 25.8688 22.1245 25.8592 22.2346C25.8325 22.5402 25.7508 22.9632 25.5872 23.4161C25.5071 23.6377 25.0897 24.095 24.5633 24.4281C24.0369 24.7612 23.3962 24.9965 23.159 25.0314C22.4456 25.1365 21.5986 25.1749 20.6683 24.8828C20.0233 24.6804 19.219 24.4183 18.1776 23.9748C16.0656 23.0741 14.2706 21.5414 12.9883 20.1913C12.3471 19.5162 11.8335 18.8878 11.468 18.4124C11.1033 17.9379 10.944 17.691 10.8112 17.5163C10.5754 17.2046 9.13044 15.1952 9.13044 13.3866C9.13044 11.4724 10.0195 10.7217 10.5006 10.2034C10.7532 9.93125 11.0293 9.89131 11.1411 9.89131Z" fill="black"/>
<path d="M2.27072 26.0286L69.6761 44.9101L77.4893 17.0176L63.3089 -8.24011L2.27072 26.0286ZM0.0282359 34.0341L-67.3772 15.1525L-67.3811 15.1666L-67.385 15.1807L0.0282359 34.0341ZM0.943653 34.9777L17.741 102.932L17.7613 102.927L17.7817 102.922L0.943653 34.9777ZM9.29093 32.9091L42.2571 -28.8423L18.5442 -41.5015L-7.54707 -35.0356L9.29093 32.9091ZM9.71001 31.4498L43.8912 -29.6375L43.8735 -29.6473L43.8559 -29.6572L9.71001 31.4498ZM9.1557 31.3755L25.9934 99.3202L26.0008 99.3184L9.1557 31.3755ZM1.8457 33.187L-65.5569 14.2954L-97.9999 130.048L18.6834 101.132L1.8457 33.187ZM3.80583 26.1935L-63.5349 7.08269L-63.566 7.19226L-63.5967 7.30192L3.80583 26.1935ZM3.73004 25.6006L64.0988 -9.83408L64.0625 -9.89595L64.026 -9.95774L3.73004 25.6006ZM9.38456 9.16759L60.6924 56.7859L60.6927 56.7856L9.38456 9.16759ZM9.59707 18.4347L-46.1086 60.8243L65.4249 -23.7938L9.59707 18.4347ZM10.2613 19.3412L-45.2363 62.0028L-45.2359 62.0033L10.2613 19.3412ZM11.8841 21.239L-38.8717 69.4453L-38.8717 69.4453L11.8841 21.239ZM17.5803 25.3747L-9.87988 89.7637L-9.86249 89.7711L-9.84509 89.7785L17.5803 25.3747ZM20.2121 26.3347L41.1829 -40.4502L41.1756 -40.4525L20.2121 26.3347ZM23.3819 26.5368L13.1829 -42.7162L13.1781 -42.7155L23.3819 26.5368ZM25.3762 25.7135L-12.0564 -33.4372L-12.0567 -33.437L25.3762 25.7135ZM27.0183 23.9332L92.849 47.7307L92.8517 47.7233L92.8544 47.7159L27.0183 23.9332ZM27.375 22.3669L97.1096 28.4565L97.1096 28.4564L27.375 22.3669ZM27.3824 21.768L97.1627 16.2261L97.1621 16.2189L97.1615 16.2116L27.3824 21.768ZM27.2145 21.1706L-32.5698 57.5827L-32.5677 57.5862L27.2145 21.1706ZM26.0405 20.3666L-5.0089 83.1037L-5.00877 83.1038L26.0405 20.3666ZM24.4816 19.6117L54.5936 -43.5806L54.5934 -43.5806L24.4816 19.6117ZM22.89 18.8895L-0.806478 84.7566L-0.713085 84.7902L-0.619597 84.8235L22.89 18.8895ZM20.9908 19.4022L-37.0379 -19.7472L-37.0381 -19.7469L20.9908 19.4022ZM19.6489 21.0398L-32.9369 -25.1634L-96.3434 47.0021L-8.22298 85.2517L19.6489 21.0398ZM19.5642 20.9967L-11.4856 83.7336L-11.4818 83.7355L19.5642 20.9967ZM16.1165 18.9058L62.406 -33.604L62.3886 -33.6193L62.3712 -33.6347L16.1165 18.9058ZM13.8086 16.0734L-39.7779 -28.9653L-71.7891 9.12117L-46.3437 51.8743L13.8086 16.0734ZM13.8443 16.0407L62.9433 65.9334L62.954 65.9229L62.9647 65.9123L13.8443 16.0407ZM14.5605 15.2189L67.4224 61.106L67.423 61.1052L14.5605 15.2189ZM15.1134 14.3213L77.6265 45.819L77.6267 45.8186L15.1134 14.3213ZM15.0762 12.862L77.5981 -18.6184L-47.4681 44.2978L15.0762 12.862ZM14.886 12.4221L-49.5783 39.705L-49.578 39.7056L14.886 12.4221ZM13.7135 9.61343L78.2236 -17.5608L78.2225 -17.5635L13.7135 9.61343ZM12.0387 8.38593L15.5136 -61.5278L15.3888 -61.534L15.2641 -61.5397L12.0387 8.38593ZM11.9659 9.90617L15.4499 -60.0071L15.3366 -60.0127L15.2233 -60.018L11.9659 9.90617ZM12.1516 9.89725L41.7448 -53.5397L41.7357 -53.5439L12.1516 9.89725ZM12.3106 10.2034L76.8209 -16.9705L76.8199 -16.9729L12.3106 10.2034ZM13.1012 12.0981L-51.5115 39.0276L13.1012 12.0981ZM13.4846 13.015L77.9491 -14.2674L77.9484 -14.2691L13.4846 13.015ZM13.7165 13.5426L76.3264 -17.7624L76.3257 -17.7638L13.7165 13.5426ZM13.7179 13.5455L-48.892 44.8505L-48.8068 45.0209L-48.7206 45.1908L13.7179 13.5455ZM13.7551 13.6377L76.2683 45.1353L76.2683 45.1353L13.7551 13.6377ZM13.4103 14.2217L66.2726 60.1083L66.2735 60.1073L13.4103 14.2217ZM12.7773 14.9558L61.8321 64.8921L61.8651 64.8596L61.8982 64.827L12.7773 14.9558ZM12.3181 15.5993L-53.2015 -9.04178L-53.2019 -9.04091L12.3181 15.5993ZM12.4592 16.7896L72.7734 -18.7379L72.7732 -18.7381L12.4592 16.7896ZM15.1104 20.0471L61.4001 -32.4625L61.3833 -32.4774L61.3665 -32.4922L15.1104 20.0471ZM18.8895 22.3594L-12.1625 85.0952L-12.1593 85.0968L18.8895 22.3594ZM20.7694 22.0712L73.2069 68.4426L73.2363 68.4093L73.2658 68.3759L20.7694 22.0712ZM22.2361 20.273L45.5079 -45.7454L-5.27032 -63.6449L-35.6003 -19.1599L22.2361 20.273ZM22.3758 20.3206L-1.30959 86.1917L-1.20787 86.2282L-1.10604 86.2645L22.3758 20.3206ZM25.3658 21.7294L-5.68472 84.4658L-5.68388 84.4663L25.3658 21.7294ZM25.8636 21.985L95.812 19.2977L93.2594 -47.1462L26.7721 -48.0091L25.8636 21.985ZM25.8592 22.2346L-43.8748 16.1377L-43.8755 16.1456L25.8592 22.2346ZM25.5872 23.4161L91.4183 47.2125L91.4209 47.2053L91.4235 47.1981L25.5872 23.4161ZM23.159 25.0314L12.9611 -44.2218L12.955 -44.2209L23.159 25.0314ZM20.6683 24.8828L41.6388 -41.9022L41.6318 -41.9044L20.6683 24.8828ZM18.1776 23.9748L-9.28255 88.3638L-9.26511 88.3712L-9.24767 88.3786L18.1776 23.9748ZM12.9883 20.1913L63.7441 -28.015L63.744 -28.0152L12.9883 20.1913ZM11.468 18.4124L-44.0295 61.0741L-44.0292 61.0746L11.468 18.4124ZM10.8112 17.5163L-45.0227 59.7369L-44.9676 59.8097L-44.9124 59.8825L10.8112 17.5163ZM10.5006 10.2034L-40.8073 -37.4149L-40.8076 -37.4146L10.5006 10.2034ZM17.5 -70C-30.8157 -70 -70 -30.8157 -70 17.5H70C70 46.5041 46.5041 70 17.5 70V-70ZM-70 17.5C-70 33.6403 -65.5347 48.2436 -58.7674 60.2973L63.3089 -8.24011C67.2371 -1.24333 70 7.56705 70 17.5H-70ZM-65.1347 7.14702L-67.3772 15.1525L67.4336 52.9156L69.6761 44.9101L-65.1347 7.14702ZM-67.385 15.1807C-74.1648 39.4228 -67.5555 65.4415 -50.0285 83.509L50.4583 -13.9713C67.6083 3.70762 74.0755 29.1666 67.4415 52.8874L-67.385 15.1807ZM-50.0285 83.509C-32.5014 101.577 -6.6956 108.973 17.741 102.932L-15.8537 -32.9771C8.05734 -38.8875 33.3082 -31.6503 50.4583 -13.9713L-50.0285 83.509ZM17.7817 102.922L26.1289 100.854L-7.54707 -35.0356L-15.8943 -32.967L17.7817 102.922ZM-23.6753 94.6604C-11.9801 100.904 2.04673 105 17.5 105V-35C27.0072 -35 35.4675 -32.4669 42.2571 -28.8423L-23.6753 94.6604ZM17.5 105C65.8157 105 105 65.8157 105 17.5H-35C-35 -11.5041 -11.5041 -35 17.5 -35V105ZM105 17.5C105 -30.8157 65.8157 -70 17.5 -70V70C-11.5041 70 -35 46.5041 -35 17.5H105ZM17.5 71.5217C-12.3266 71.5217 -36.5217 47.3266 -36.5217 17.5H103.478C103.478 -29.9933 64.9933 -68.4783 17.5 -68.4783V71.5217ZM-36.5217 17.5C-36.5217 -12.3266 -12.3266 -36.5217 17.5 -36.5217V103.478C64.9933 103.478 103.478 64.9933 103.478 17.5H-36.5217ZM17.5 -36.5217C27.0134 -36.5217 36.0865 -34.0045 43.8912 -29.6375L-24.4711 92.537C-12.055 99.4844 2.32271 103.478 17.5 103.478V-36.5217ZM43.8559 -29.6572C28.1728 -38.4207 9.74509 -40.89 -7.68943 -36.5675L26.0008 99.3184C8.94133 103.548 -9.09004 101.132 -24.4359 92.5567L43.8559 -29.6572ZM-7.68201 -36.5693L-14.992 -34.7578L18.6834 101.132L25.9934 99.3202L-7.68201 -36.5693ZM69.2483 52.0786L71.2084 45.0851L-63.5967 7.30192L-65.5569 14.2954L69.2483 52.0786ZM71.1466 45.3044C76.4169 26.7332 73.8712 6.81478 64.0988 -9.83408L-56.6387 61.0352C-66.2009 44.7445 -68.6919 25.2544 -63.5349 7.08269L71.1466 45.3044ZM64.026 -9.95774C68.7653 -1.92143 71.5217 7.5409 71.5217 17.5H-68.4783C-68.4783 33.3788 -64.1077 48.3704 -56.5659 61.1589L64.026 -9.95774ZM71.5217 17.5C71.5217 47.3266 47.3266 71.5217 17.5 71.5217V-68.4783C-29.9932 -68.4783 -68.4783 -29.9933 -68.4783 17.5H71.5217ZM11.1411 -61.6304C-5.50017 -61.6304 -26.0061 -55.6015 -41.9236 -38.4504L60.6927 56.7856C45.9196 72.7035 26.8069 78.3696 11.1411 78.3696V-61.6304ZM-41.9233 -38.4507C-41.2472 -39.1792 -47.3723 -33.049 -52.4102 -24.2321C-57.7233 -14.9335 -62.3913 -2.11486 -62.3913 13.3866H77.6087C77.6087 40.4068 60.6794 56.7999 60.6924 56.7859L-41.9233 -38.4507ZM-62.3913 13.3866C-62.3913 30.1607 -56.8364 42.7837 -53.6193 48.9878C-50.0663 55.8393 -46.1173 60.8134 -46.2308 60.6633L65.4249 -23.7938C65.0969 -24.2274 68.0518 -20.4987 70.6642 -15.4609C72.9408 -11.0706 77.6087 -0.829936 77.6087 13.3866H-62.3913ZM65.3028 -23.9548C65.1671 -24.1331 64.4145 -25.1263 63.4005 -26.3446C63.127 -26.6733 61.5032 -28.6425 59.2177 -30.9395C58.583 -31.5773 54.9281 -35.314 49.4906 -39.0854C45.9852 -41.3647 35.3192 -46.6689 27.974 -49.1109C12.3021 -51.5141 -26.6932 -41.4253 -45.3099 -24.9869C-54.5923 -9.49225 -60.3823 16.6955 -60.0405 25.5571C-59.411 30.1821 -57.7722 37.447 -56.9634 40.1091C-55.4694 44.6969 -53.8168 48.0952 -53.3793 48.9967C-52.1815 51.4648 -51.0932 53.3196 -50.8555 53.7267C-50.1205 54.9857 -49.5032 55.9481 -49.3756 56.1475C-48.9627 56.7933 -48.6279 57.2923 -48.5513 57.4066C-48.4154 57.6094 -48.3044 57.7728 -48.238 57.8702C-48.001 58.2179 -47.8065 58.4964 -47.7195 58.6209C-47.4955 58.941 -47.2676 59.2618 -47.0418 59.5755C-46.5979 60.1923 -45.9794 61.0362 -45.2363 62.0028L65.759 -23.3203C66.1115 -22.8618 66.3878 -22.4845 66.5921 -22.2006C66.698 -22.0534 66.8319 -21.8656 66.9942 -21.6336C67.0504 -21.5531 67.2222 -21.3074 67.4455 -20.9799C67.5085 -20.8874 67.6166 -20.7283 67.7502 -20.5289C67.8245 -20.4181 68.1576 -19.9217 68.5694 -19.2777C68.6964 -19.0791 69.3133 -18.1174 70.048 -16.8589C70.2856 -16.452 71.3737 -14.5974 72.5715 -12.1294C73.009 -11.2279 74.6616 -7.82966 76.1556 -3.24196C76.9644 -0.579889 78.6031 6.68501 79.2327 11.31C79.5745 20.1717 73.7845 46.3594 64.502 61.854C45.8854 78.2924 6.89005 88.3812 -8.7818 85.978C-16.127 83.536 -26.793 78.2318 -30.2984 75.9525C-35.7359 72.1811 -39.3908 68.4445 -40.0254 67.8067C-42.3108 65.5098 -43.9345 63.5407 -44.2078 63.2123C-45.2214 61.9944 -45.9736 61.0018 -46.1086 60.8243L65.3028 -23.9548ZM-45.2359 62.0033C-43.6973 64.0049 -41.5736 66.6005 -38.8717 69.4453L62.6399 -26.9673C63.9697 -25.5673 65.0011 -24.3063 65.7586 -23.3208L-45.2359 62.0033ZM-38.8717 69.4453C-34.0805 74.4898 -24.4797 83.5373 -9.87988 89.7637L45.0404 -39.0143C54.851 -34.8303 60.5932 -29.1223 62.6399 -26.9674L-38.8717 69.4453ZM-9.84509 89.7785C-5.71377 91.5378 -2.38664 92.6086 -0.75148 93.1219L41.1756 -40.4525C41.1688 -40.4546 41.3266 -40.4052 41.5592 -40.3287C41.8 -40.2494 42.1165 -40.1427 42.4873 -40.011C43.2504 -39.74 44.1025 -39.4137 45.0056 -39.0291L-9.84509 89.7785ZM-0.758697 93.1196C14.2716 97.8392 27.0321 96.7548 33.5856 95.7891L13.1781 -42.7155C18.0602 -43.4348 28.5955 -44.4027 41.1829 -40.4502L-0.758697 93.1196ZM33.5808 95.7899C47.4224 93.7514 57.5269 88.2068 62.809 84.864L-12.0567 -33.437C-9.69106 -34.934 -6.5596 -36.6899 -2.68803 -38.3117C1.10434 -39.9003 6.48597 -41.7299 13.1829 -42.7162L33.5808 95.7899ZM62.8087 84.8642C66.2971 82.6567 84.2472 71.5256 92.849 47.7307L-38.8124 0.135732C-30.799 -22.0315 -14.1832 -32.0912 -12.0564 -33.4372L62.8087 84.8642ZM92.8544 47.7159C95.1275 41.4233 96.5437 34.9363 97.1096 28.4565L-42.3597 16.2773C-41.8713 10.6849 -40.6693 5.27623 -38.8178 0.150583L92.8544 47.7159ZM97.1096 28.4564C97.3939 25.2007 97.5445 21.0337 97.1627 16.2261L-42.3979 27.3099C-42.7509 22.8649 -42.6052 19.0894 -42.3597 16.2774L97.1096 28.4564ZM97.1615 16.2116C97.1939 16.6178 97.2167 16.9512 97.2312 17.1723C97.2447 17.38 97.2544 17.5436 97.2545 17.5463C97.2646 17.716 97.2284 17.0754 97.1765 16.3852C97.0527 14.7399 96.7534 11.4207 95.9013 7.3071C93.9948 -1.89708 90.5272 -9.44888 86.9966 -15.2449L-32.5677 57.5862C-35.9294 52.0674 -39.3202 44.7237 -41.1886 35.7036C-42.0216 31.682 -42.3115 28.4488 -42.4289 26.8892C-42.4776 26.2418 -42.5113 25.6439 -42.4986 25.8571C-42.4977 25.8716 -42.4603 26.5256 -42.3967 27.3245L97.1615 16.2116ZM86.9987 -15.2415C83.8527 -20.4069 79.7109 -25.7399 74.3351 -30.6857C68.9089 -35.6781 63.4843 -39.117 58.9482 -41.476C56.8078 -42.5891 54.9919 -43.395 53.7798 -43.9079C52.6605 -44.3815 51.7212 -44.7427 51.7073 -44.7481C50.9942 -45.0253 53.8997 -43.9492 57.0897 -42.3705L-5.00877 83.1038C-1.60951 84.7861 1.50314 85.9417 0.994057 85.7439C0.991307 85.7428 0.937093 85.7218 0.864349 85.6933C0.788546 85.6636 0.670397 85.6171 0.524767 85.5591C0.238593 85.4452 -0.216598 85.2616 -0.774898 85.0253C-1.88665 84.5549 -3.60304 83.7943 -5.64504 82.7324C-9.98421 80.4758 -15.2159 77.1627 -20.4542 72.3433C-25.6421 67.5703 -29.6009 62.4573 -32.5698 57.5827L86.9987 -15.2415ZM57.0898 -42.3704C56.5324 -42.6463 55.5574 -43.1213 54.5936 -43.5806L-5.63047 82.804C-5.4871 82.8723 -5.31308 82.9562 -5.14838 83.0361C-5.07002 83.0742 -5.00789 83.1045 -4.96849 83.1237C-4.9164 83.1492 -4.93573 83.1399 -5.0089 83.1037L57.0898 -42.3704ZM54.5934 -43.5806C54.545 -43.6037 54.495 -43.6276 54.4059 -43.6702C54.3289 -43.707 54.212 -43.7628 54.0888 -43.8214C53.8584 -43.9311 53.4451 -44.1273 52.9645 -44.3497C52.5011 -44.5641 51.7364 -44.9138 50.8085 -45.3121C49.9612 -45.6758 48.387 -46.3359 46.3996 -47.0446L-0.619597 84.8235C-2.43009 84.178 -3.79991 83.6002 -4.41925 83.3343C-5.11923 83.0338 -5.63253 82.7976 -5.82513 82.7085C-6.03503 82.6113 -6.15825 82.5522 -6.08331 82.5879C-6.05375 82.602 -6.0142 82.6208 -5.93146 82.6604C-5.86081 82.6941 -5.74772 82.7481 -5.63029 82.8041L54.5934 -43.5806ZM46.5865 -46.9776C48.4503 -46.3071 33.1523 -52.9724 14.1234 -50.8176L29.8762 88.2934C21.0736 89.2902 13.2128 88.4555 6.82781 86.9878C1.77775 85.8271 -3.27293 83.8693 -0.806478 84.7566L46.5865 -46.9776ZM14.1234 -50.8176C-11.5574 -47.9095 -28.4475 -32.4802 -37.0379 -19.7472L79.0195 58.5515C74.1011 65.8417 67.8771 72.0407 60.7313 76.8886C53.7128 81.6499 43.3004 86.7732 29.8762 88.2934L14.1234 -50.8176ZM-37.0381 -19.7469C-36.467 -20.5933 -35.9863 -21.2648 -35.6822 -21.6832C-35.36 -22.1265 -35.0878 -22.4894 -34.8937 -22.7454C-34.5162 -23.2432 -34.2194 -23.619 -34.0673 -23.8104C-33.7629 -24.1933 -33.5588 -24.4389 -33.5237 -24.4813C-33.4613 -24.5564 -33.4195 -24.6059 -33.3843 -24.6473C-33.3636 -24.6716 -33.3262 -24.7154 -33.2714 -24.7791C-33.2303 -24.8268 -33.1097 -24.9667 -32.9369 -25.1634L72.2346 67.2431C72.9176 66.4657 73.6395 65.6122 74.1999 64.937C74.5108 64.5625 74.9875 63.9836 75.5225 63.3106C75.6341 63.1703 77.2742 61.1385 79.0197 58.5512L-37.0381 -19.7469ZM19.6489 21.0398C-8.22298 85.2517 -8.2143 85.2554 -8.20561 85.2592C-8.20269 85.2605 -8.19387 85.2643 -8.18798 85.2669C-8.17614 85.272 -8.16411 85.2772 -8.15191 85.2825C-8.12751 85.293 -8.10232 85.3039 -8.07637 85.3151C-8.02459 85.3374 -7.96906 85.3613 -7.91011 85.3866C-7.79381 85.4364 -7.65595 85.4951 -7.50049 85.5605C-7.225 85.6764 -6.74076 85.8782 -6.13258 86.1192C-5.71122 86.2861 -4.3487 86.8246 -2.57 87.42C-1.76608 87.6891 0.187979 88.3315 2.73244 88.9652C3.9978 89.2804 6.2728 89.8121 9.15771 90.2495C11.2234 90.5627 17.6688 91.5011 25.9209 90.7589C28.5935 90.5185 61.2461 88.4061 79.994 56.5177C100.924 20.9174 82.1141 -10.9101 79.6702 -14.982C74.7535 -23.1741 69.2936 -28.3577 67.731 -29.8345C65.4065 -32.0314 63.406 -33.6162 62.3141 -34.4556C58.6958 -37.2373 55.5117 -39.0761 55.3992 -39.1429C53.8622 -40.0559 52.6068 -40.7166 52.4672 -40.7907C51.7611 -41.1655 51.1935 -41.4505 51.0987 -41.4982C50.8894 -41.6036 50.715 -41.6901 50.6101 -41.742L-11.4818 83.7355C-11.5346 83.7093 -11.6724 83.641 -11.8561 83.5486C-11.9252 83.5138 -12.4782 83.2364 -13.1761 82.8659C-13.3116 82.794 -14.5646 82.1347 -16.1002 81.2225C-16.212 81.1561 -19.3957 79.3176 -23.0138 76.536C-24.1056 75.6967 -26.106 74.1119 -28.4305 71.915C-29.993 70.4383 -35.453 65.2547 -40.3696 57.0627C-42.8784 52.8827 -47.2848 44.6044 -49.2968 33.1359C-51.501 20.5716 -50.8932 2.91196 -40.6934 -14.437C-30.9031 -31.0894 -16.9363 -39.4871 -7.62862 -43.4256C1.39206 -47.2427 9.19686 -48.302 13.3797 -48.6782C21.6317 -49.4204 28.0771 -48.482 30.1427 -48.1688C33.0276 -47.7315 35.3025 -47.1997 36.5679 -46.8846C39.1122 -46.2509 41.0662 -45.6086 41.8699 -45.3395C43.6484 -44.7442 45.0105 -44.2058 45.4316 -44.039C46.0394 -43.7982 46.5233 -43.5965 46.7986 -43.4806C46.954 -43.4153 47.0917 -43.3566 47.2079 -43.3069C47.2669 -43.2816 47.3224 -43.2578 47.3741 -43.2354C47.4001 -43.2242 47.4253 -43.2134 47.4496 -43.2028C47.4619 -43.1975 47.4739 -43.1923 47.4857 -43.1872C47.4916 -43.1846 47.5004 -43.1808 47.5033 -43.1795C47.512 -43.1758 47.5207 -43.172 19.6489 21.0398ZM50.6139 -41.7401C49.8066 -42.1397 49.1089 -42.4665 48.5746 -42.7111C48.3046 -42.8346 48.0639 -42.9429 47.861 -43.0333C47.6587 -43.1235 47.4828 -43.2008 47.3445 -43.2613C47.207 -43.3214 47.0914 -43.3715 47.0135 -43.4051C46.9397 -43.4371 46.8732 -43.4657 46.8538 -43.4741C46.8212 -43.4881 46.8325 -43.4833 46.8485 -43.4764C46.8693 -43.4674 46.9164 -43.447 46.9797 -43.4194C47.2442 -43.3041 47.8035 -43.0578 48.5132 -42.7231C48.868 -42.5559 49.2508 -42.3711 49.6574 -42.1687C50.0638 -41.9663 50.4822 -41.7523 50.9106 -41.5263L-14.4096 82.3012C-13.2469 82.9146 -12.1692 83.4466 -11.1959 83.9055C-10.2356 84.3584 -9.44571 84.7073 -8.96727 84.9159C-8.75049 85.0104 -8.55904 85.0927 -8.53219 85.1043C-8.45331 85.1383 -8.57955 85.0841 -8.73571 85.0158C-9.01858 84.8921 -10.1019 84.4184 -11.4856 83.7336L50.6139 -41.7401ZM50.9106 -41.5263C54.3905 -39.6906 58.4087 -37.1277 62.406 -33.604L-30.1731 71.4156C-24.5618 76.3622 -19.0687 79.8436 -14.4096 82.3012L50.9106 -41.5263ZM62.3712 -33.6347C66.3435 -30.1376 68.9784 -26.899 70.4305 -24.9802C71.9924 -22.9162 73.1505 -21.0891 73.9609 -19.7275L-46.3437 51.8743C-44.8372 54.4054 -39.5547 63.1564 -30.1382 71.4463L62.3712 -33.6347ZM67.3951 61.1121C67.3054 61.2188 66.8792 61.7267 66.3186 62.3625C66.0201 62.701 65.5129 63.27 64.8659 63.9597C64.2478 64.6185 63.1837 65.7285 61.7934 67.0372C60.4011 68.3477 58.2283 70.2878 55.3736 72.3938C53.9072 73.4756 52.2818 74.5863 50.4942 75.686C48.6898 76.7959 46.902 77.7828 45.1501 78.6597C41.8152 80.329 39.0049 81.3752 38.89 81.4193C38.4361 81.5934 40.2135 80.9306 42.1493 80.0739C44.312 79.1167 46.4353 78.0459 48.5093 76.8626C50.493 75.7308 52.175 74.6422 53.5283 73.7102C56.0878 71.9472 58.007 70.3707 59.0442 69.493C60.1634 68.5459 61.0417 67.7418 61.5818 67.2379C62.1528 66.7053 62.6192 66.2523 62.9433 65.9334L-35.2548 -33.8521C-34.9401 -34.1617 -34.4814 -34.6073 -33.9166 -35.1342C-33.3827 -35.6322 -32.5092 -36.4321 -31.3937 -37.376C-30.3602 -38.2506 -28.4436 -39.8251 -25.8861 -41.5866C-24.5339 -42.518 -22.8527 -43.606 -20.8696 -44.7375C-18.7963 -45.9204 -16.6736 -46.9909 -14.5114 -47.9479C-12.576 -48.8044 -10.7991 -49.467 -11.2534 -49.2928C-11.3687 -49.2485 -14.1793 -48.2022 -17.5146 -46.5327C-19.2666 -45.6557 -21.0546 -44.6688 -22.8592 -43.5587C-24.647 -42.4589 -26.2726 -41.3481 -27.7392 -40.2661C-30.5944 -38.1598 -32.7676 -36.2192 -34.1606 -34.9081C-35.5516 -33.5989 -36.6164 -32.4881 -37.2353 -31.8284C-37.8832 -31.1377 -38.3914 -30.5677 -38.6912 -30.2277C-39.2542 -29.5891 -39.6838 -29.0773 -39.7779 -28.9653L67.3951 61.1121ZM62.9647 65.9123C65.4699 63.4448 67.2697 61.3057 67.8608 60.6009C68.1394 60.2687 68.4967 59.8348 68.3612 59.9988C68.3482 60.0146 68.2466 60.1376 68.1069 60.3041C67.9655 60.4726 67.7267 60.7554 67.4224 61.106L-38.3013 -30.6682C-38.9531 -29.9173 -39.4715 -29.2879 -39.5591 -29.1819C-39.8056 -28.8837 -39.5638 -29.1768 -39.4049 -29.3662C-39.1741 -29.6414 -38.6905 -30.2132 -38.0464 -30.9306C-37.4022 -31.6483 -36.4642 -32.6608 -35.2762 -33.831L62.9647 65.9123ZM67.423 61.1052C74.659 52.7692 78.7863 43.5172 77.6265 45.819L-47.3998 -17.1763C-48.835 -14.328 -44.9618 -22.9951 -38.302 -30.6674L67.423 61.1052ZM77.6267 45.8186C91.811 17.6667 83.0104 -7.8692 77.5981 -18.6184L-47.4457 44.3424C-50.9 37.4819 -53.5861 29.2635 -54.4467 19.9372C-55.3425 10.2283 -54.4273 -3.22878 -47.4 -17.176L77.6267 45.8186ZM-47.4681 44.2978C-47.3532 44.5263 -47.1344 44.9589 -46.8503 45.498C-46.6929 45.7967 -45.9665 47.1807 -44.9402 48.8904C-44.5698 49.5073 -43.1491 51.8788 -41.0371 54.7109C-40.1405 55.9132 -37.5672 59.3209 -33.6551 63.1146C-31.5438 65.0794 -25.9321 69.5931 -22.3548 72.0147C-16.3585 75.4079 0.772863 81.3864 11.9756 82.7948C28.321 81.5992 57.9661 68.1856 69.6449 56.7082C75.9888 47.3563 82.8087 30.539 84.2172 23.8014C85.9806 12.6548 84.4985 3.77473 84.2903 2.39804C83.4967 -2.85024 82.2427 -6.86247 82.0754 -7.41513C81.3629 -9.76907 80.6707 -11.5815 80.5671 -11.8561C80.3255 -12.4963 80.1245 -12.9997 80.0231 -13.2519C79.8136 -13.7731 79.6432 -14.1781 79.5812 -14.3253C79.438 -14.665 79.3226 -14.931 79.2953 -14.994C79.2502 -15.098 79.214 -15.1809 79.1976 -15.2183C79.1789 -15.2612 79.1634 -15.2965 79.1559 -15.3136C79.1482 -15.3311 79.1405 -15.3486 79.1384 -15.3533C79.1315 -15.3691 79.134 -15.3634 79.138 -15.3542C79.1505 -15.3258 79.2348 -15.1337 79.35 -14.8614L-49.578 39.7056C-49.3585 40.2244 -49.1736 40.6474 -49.0894 40.8395C-49.0674 40.8897 -49.0487 40.9321 -49.0417 40.9481C-49.0258 40.9844 -49.0448 40.9411 -49.0661 40.8926C-49.0778 40.8657 -49.1102 40.7917 -49.152 40.6952C-49.176 40.6397 -49.2889 40.3796 -49.4303 40.0442C-49.4914 39.8991 -49.6611 39.4958 -49.8701 38.976C-49.9712 38.7244 -50.1719 38.2216 -50.4134 37.5818C-50.5169 37.3077 -51.209 35.4955 -51.9214 33.1418C-52.0886 32.5893 -53.3426 28.5771 -54.1362 23.3289C-54.3444 21.9522 -55.8265 13.0722 -54.0631 1.92557C-52.6546 -4.81196 -45.8347 -21.6293 -39.4908 -30.9812C-27.812 -42.4586 1.83313 -55.8722 18.1785 -57.0678C29.3812 -55.6594 46.5126 -49.6809 52.5089 -46.2877C56.0862 -43.8661 61.6978 -39.3524 63.8092 -37.3876C67.7212 -33.5939 70.2945 -30.1862 71.1911 -28.9839C73.3031 -26.1519 74.7238 -23.7805 75.094 -23.1637C76.1202 -21.4542 76.8464 -20.0706 77.0036 -19.7723C77.2875 -19.2337 77.506 -18.8017 77.6205 -18.5738L-47.4681 44.2978ZM79.3503 -14.8608C79.3612 -14.835 79.3505 -14.8601 79.3008 -14.979C79.2511 -15.0981 79.2004 -15.2198 79.1183 -15.4168L-50.1072 38.442C-50.0092 38.6773 -49.7782 39.2327 -49.5783 39.705L79.3503 -14.8608ZM79.1183 -15.4168C78.924 -15.883 78.4806 -16.9507 78.2236 -17.5608L-50.7967 36.7876C-50.6754 37.0756 -50.4826 37.5412 -50.1072 38.442L79.1183 -15.4168ZM78.2225 -17.5635C74.5201 -26.3518 64.7494 -44.4891 42.3841 -54.9207L-16.794 71.9571C-38.371 61.8931 -47.5388 44.5208 -50.7956 36.7903L78.2225 -17.5635ZM42.3841 -54.9207C32.7437 -59.4171 23.839 -60.9624 17.3307 -61.4338C14.009 -61.6743 11.115 -61.6503 8.80008 -61.5408C7.62737 -61.4853 6.67006 -61.4108 6.04854 -61.3572C5.91038 -61.3453 5.80217 -61.3355 5.76502 -61.3322C5.66244 -61.3229 5.82129 -61.3373 5.93952 -61.3477C6.00008 -61.353 6.59797 -61.4063 7.35326 -61.457C7.73737 -61.4828 8.51918 -61.5325 9.50924 -61.5683C10.1792 -61.5926 12.5202 -61.6765 15.5136 -61.5278L8.56376 78.2996C11.5576 78.4484 13.8992 78.3644 14.5699 78.3402C15.5607 78.3043 16.3435 78.2546 16.7287 78.2287C17.4861 78.1779 18.0868 78.1243 18.1508 78.1187C18.2724 78.1081 18.4353 78.0933 18.3374 78.1021C18.3049 78.1051 18.2019 78.1144 18.0696 78.1258C17.4713 78.1773 16.5466 78.2493 15.4147 78.3029C13.1813 78.4085 10.4017 78.4311 7.21807 78.2005C0.985894 77.7492 -7.54769 76.2697 -16.794 71.9571L42.3841 -54.9207ZM15.2641 -61.5397C13.3754 -61.6268 11.8083 -61.6304 11.1411 -61.6304V78.3696C11.0515 78.3696 10.8022 78.3692 10.454 78.3635C10.1157 78.358 9.54357 78.3453 8.81328 78.3116L15.2641 -61.5397ZM11.1411 79.8913C11.02 79.8913 10.7637 79.8907 10.4143 79.8849C10.0878 79.8795 9.48696 79.8666 8.70842 79.8303L15.2233 -60.018C13.3593 -60.1048 11.8019 -60.1087 11.1411 -60.1087V79.8913ZM8.48184 79.8194C4.91876 79.6418 10.9257 80.0478 15.414 79.8395C16.6325 79.783 19.8057 79.6152 23.803 78.9419C24.6715 78.7956 38.8793 76.9259 53.0284 66.7584C61.6279 60.5788 75.2056 47.6541 80.3153 25.9623C85.5111 3.90488 78.9026 -14.1718 73.3051 -24.2015C64.3757 -40.2016 51.3968 -48.0749 50.8982 -48.406C47.5399 -50.6359 44.7307 -52.0683 43.8614 -52.5096C42.6955 -53.1015 41.7675 -53.5299 41.4975 -53.6546C41.2193 -53.7829 40.8916 -53.931 41.0676 -53.8511C41.1164 -53.829 41.3934 -53.7036 41.7448 -53.5397L-17.4415 73.3342C-17.0841 73.5009 -16.8014 73.6289 -16.7473 73.6535C-16.5659 73.7357 -16.8885 73.59 -17.1622 73.4637C-17.4278 73.3411 -18.3517 72.9146 -19.5142 72.3244C-20.38 71.8849 -23.1863 70.4541 -26.5425 68.2256C-27.039 67.896 -40.0164 60.0239 -48.9452 44.025C-54.5424 33.9958 -61.1508 15.9196 -55.9551 -6.13732C-50.8455 -27.8286 -37.2681 -40.7528 -28.6692 -46.932C-14.5212 -57.0987 -0.315464 -58.9678 0.549867 -59.1135C4.54414 -59.7863 7.71308 -59.9538 8.92634 -60.0101C13.3721 -60.2163 19.2621 -59.8171 15.4499 -60.0071L8.48184 79.8194ZM41.7357 -53.5439C45.141 -51.956 48.2168 -50.1874 50.9683 -48.353C52.3445 -47.4356 53.6319 -46.5067 54.8331 -45.5821C55.5097 -45.0613 56.0898 -44.5919 55.9682 -44.6896C55.5689 -45.0079 -40.7511 -35.9703 -36.424 60.3057C-34.9152 61.7166 -33.2189 63.2074 -33.0721 63.3319C-33.0069 63.387 -32.8348 63.532 -32.9662 63.4213C-33.0445 63.3553 -33.1527 63.2639 -33.2813 63.1542C-33.5324 62.9401 -33.7893 62.718 -34.0513 62.4879C-38.2301 58.8186 -41.4044 55.1494 -43.7504 52.0352C-48.2639 46.0439 -50.8458 40.5911 -52.1987 37.3797L76.8199 -16.9729C75.3254 -20.5205 72.6397 -26.1378 68.0699 -32.2038C65.6958 -35.3553 62.5053 -39.0394 58.3234 -42.7115C58.0611 -42.9417 57.8041 -43.164 57.5529 -43.3782C57.4243 -43.4878 57.316 -43.5793 57.2377 -43.6453C57.1063 -43.756 57.2784 -43.611 57.3435 -43.5559C57.4904 -43.4314 59.1867 -41.9407 60.6955 -40.5298C65.0226 55.7463 -31.2974 64.7839 -31.6967 64.4656C-31.8184 64.3679 -31.238 64.8375 -30.5609 65.3587C-29.3589 66.2839 -28.0697 67.214 -26.691 68.1332C-23.9344 69.971 -20.8499 71.7448 -17.4324 73.3384L41.7357 -53.5439ZM-52.1997 37.3773C-52.083 37.6542 -51.8691 38.1695 -51.5115 39.0276L77.7139 -14.8314C77.5 -15.3446 77.0747 -16.3681 76.8209 -16.9705L-52.1997 37.3773ZM-51.5115 39.0276C-51.426 39.2328 -51.1834 39.8165 -50.9791 40.2991L77.9484 -14.2691C77.9618 -14.2374 77.9532 -14.2574 77.9028 -14.3783C77.8801 -14.4325 77.8543 -14.4946 77.8217 -14.5726C77.793 -14.6415 77.7507 -14.7431 77.7139 -14.8314L-51.5115 39.0276ZM-50.9798 40.2975C-50.9799 40.2974 -50.9796 40.298 -50.9791 40.2993C-50.9785 40.3007 -50.9776 40.3027 -50.9764 40.3055C-50.9738 40.3118 -50.9705 40.3195 -50.9648 40.333C-50.957 40.3515 -50.9335 40.4072 -50.9097 40.4634C-50.8675 40.5632 -50.7536 40.8323 -50.6122 41.1585C-50.3193 41.8343 -49.7232 43.1881 -48.8927 44.849L76.3257 -17.7638C77.0889 -16.2373 77.6226 -15.0211 77.8431 -14.5123C77.9 -14.3809 77.9449 -14.2761 77.9726 -14.2112C77.9999 -14.147 78.0189 -14.1021 78.0226 -14.0934C78.0249 -14.088 78.0259 -14.0857 78.0098 -14.1237C77.9977 -14.1525 77.975 -14.2062 77.9491 -14.2674L-50.9798 40.2975ZM-48.8934 44.8475L-48.892 44.8505L76.3278 -17.7594L76.3264 -17.7624L-48.8934 44.8475ZM-48.7206 45.1908C-47.7583 47.0896 -45.6738 51.0211 -42.316 55.5139C-40.6345 57.7637 -37.7438 61.3603 -33.5576 65.2008C-31.4305 67.1524 -28.3915 69.7003 -24.4488 72.2695C-20.9147 74.5725 -14.4215 78.3686 -5.46847 80.9278C-0.985466 82.2092 6.02288 83.734 14.7123 83.6171C22.5717 83.5113 37.8354 81.9614 53.2641 71.4184C61.417 65.8473 69.4452 57.8063 75.315 46.9747C81.2241 36.0704 83.7888 24.4571 83.7708 13.5081C83.7363 -7.47487 74.5736 -22.4701 68.3159 -30.25C55.585 -46.0778 39.6216 -52.2374 29.6011 -54.5639C18.0454 -57.2469 7.29116 -56.6719 -1.60965 -54.6676C-19.2865 -50.687 -30.8347 -41.0281 -36.8564 -34.7238C-43.1036 -28.1833 -46.7743 -21.7972 -48.7581 -17.8599L76.2683 45.1353C74.2902 49.0612 70.6247 55.44 64.3819 61.9758C58.3647 68.2755 46.8201 77.9325 29.146 81.9124C20.2466 83.9164 9.49345 84.4914 -2.06135 81.8087C-12.081 79.4824 -28.0438 73.3231 -40.7744 57.4956C-47.032 49.7159 -56.1946 34.7209 -56.229 13.7381C-56.247 2.78921 -53.6824 -8.82405 -47.7733 -19.7282C-41.9036 -30.5598 -33.8755 -38.6007 -25.7226 -44.1718C-10.2941 -54.7146 4.96942 -56.2645 12.8285 -56.3703C21.5176 -56.4872 28.5255 -54.9624 33.008 -53.6811C41.9601 -51.1223 48.4519 -47.3267 51.9844 -45.0249C55.9253 -42.4568 58.9623 -39.9104 61.087 -37.9612C65.2681 -34.1252 68.1524 -30.5358 69.8254 -28.2972C73.1666 -23.8267 75.2271 -19.9335 76.1565 -18.0997L-48.7206 45.1908ZM-48.7581 -17.86C-48.9781 -17.4233 -49.2666 -16.8356 -49.1244 -17.1239C-49.0945 -17.1845 -48.9341 -17.5102 -48.7185 -17.9323C-48.4931 -18.3734 -48.1308 -19.0709 -47.6617 -19.9184C-46.6299 -21.7827 -45.2907 -23.9969 -43.5908 -26.3941C-41.9679 -28.6829 -40.4895 -30.4695 -39.4529 -31.6638L66.2735 60.1073C67.3914 58.8194 68.9334 56.9528 70.6111 54.5868C72.3658 52.1123 73.7509 49.8236 74.8285 47.8764C75.7306 46.2465 76.3942 44.8849 76.4371 44.798C76.6335 44.3996 76.408 44.858 76.2683 45.1353L-48.7581 -17.86ZM-39.452 -31.6648C-39.8529 -31.203 -40.1756 -30.8205 -40.3325 -30.6341C-40.4136 -30.5377 -40.4863 -30.4509 -40.5099 -30.4228C-40.5493 -30.3758 -40.5304 -30.3984 -40.5037 -30.4301C-40.4893 -30.4473 -40.16 -30.8398 -39.709 -31.3537C-39.4674 -31.6289 -39.082 -32.0634 -38.5943 -32.5915C-38.1359 -33.0879 -37.3553 -33.919 -36.3437 -34.9154L61.8982 64.827C62.9432 63.7977 63.7609 62.9279 64.2596 62.3879C64.7876 61.8161 65.2165 61.333 65.5044 61.0051C66.0481 60.3858 66.4808 59.8713 66.6059 59.7227C66.6879 59.6253 66.764 59.5345 66.783 59.5119C66.8178 59.4703 66.8048 59.4859 66.7842 59.5103C66.7484 59.5529 66.5499 59.7889 66.2726 60.1083L-39.452 -31.6648ZM-36.2775 -34.9804C-33.9808 -37.2366 -38.4248 -33.0636 -41.7131 -29.0279C-45.8043 -24.007 -50.0671 -17.3762 -53.2015 -9.04178L77.8377 40.2404C74.8348 48.2249 70.7432 54.5913 66.8195 59.4067C63.6987 63.2368 59.4185 67.263 61.8321 64.8921L-36.2775 -34.9804ZM-53.2019 -9.04091C-61.9913 14.3308 -56.9387 36.896 -47.8548 52.3174L72.7732 -18.7381C77.8859 -10.0586 80.6955 -0.937084 81.7507 7.76294C82.7759 16.2162 82.5432 27.7281 77.838 40.2395L-53.2019 -9.04091ZM-47.8549 52.3172C-46.3819 54.8178 -40.9696 63.9373 -31.1457 72.5864L61.3665 -32.4922C65.2009 -29.1163 67.7935 -25.9515 69.3313 -23.9029C70.9694 -21.7209 72.1217 -19.8442 72.7734 -18.7379L-47.8549 52.3172ZM-31.1793 72.5568C-25.4996 77.5637 -19.9104 81.1206 -15.1201 83.6475L50.2003 -40.1799C53.6391 -38.366 57.5364 -35.8686 61.4001 -32.4625L-31.1793 72.5568ZM-15.1201 83.6475C-12.8555 84.8421 -10.9417 85.7151 -9.71134 86.2551C-9.11689 86.516 -8.61495 86.7276 -8.57709 86.7436C-8.47688 86.7861 -8.73956 86.6754 -9.0505 86.5404C-9.22709 86.4638 -9.56817 86.3149 -9.99835 86.1202C-10.3801 85.9474 -11.1718 85.5856 -12.1625 85.0952L49.9415 -40.3763C49.6681 -40.5116 49.4196 -40.6324 49.2013 -40.7373C48.9825 -40.8425 48.7826 -40.9371 48.6055 -41.0202C48.2563 -41.184 47.9552 -41.3218 47.7213 -41.4276C47.4846 -41.5347 47.2793 -41.6261 47.117 -41.6977C46.9533 -41.77 46.8111 -41.8321 46.6982 -41.8811C46.5846 -41.9304 46.4862 -41.9728 46.409 -42.0059C46.3313 -42.0392 46.2646 -42.0677 46.2139 -42.0893C46.1207 -42.129 46.0404 -42.163 46.0205 -42.1714C45.982 -42.1878 45.9962 -42.1817 46.005 -42.178C46.0216 -42.171 46.0589 -42.1551 46.1087 -42.1338C46.2101 -42.0904 46.3651 -42.0238 46.5554 -41.9402C46.9377 -41.7724 47.4553 -41.54 48.0654 -41.25C48.6727 -40.9614 49.3936 -40.6055 50.2003 -40.1799L-15.1201 83.6475ZM-12.1593 85.0968C-6.95513 87.6723 8.05764 94.4933 28.2178 92.0728L11.5287 -46.9289C30.9455 -49.2602 45.319 -42.6639 49.9383 -40.3779L-12.1593 85.0968ZM28.2178 92.0728C50.693 89.3744 65.5462 77.1053 73.2069 68.4426L-31.6681 -24.3003C-24.4155 -32.5017 -10.2031 -44.3197 11.5287 -46.9289L28.2178 92.0728ZM73.2658 68.3759C73.5417 68.063 74.2865 67.2168 75.1608 66.1713C75.5962 65.6506 77.8016 63.0367 80.0725 59.7059L-35.6003 -19.1599C-34.9707 -20.0832 -34.4362 -20.8159 -34.0773 -21.298C-33.7041 -21.7994 -33.39 -22.2052 -33.1647 -22.4919C-32.7291 -23.0465 -32.3978 -23.4458 -32.242 -23.6321C-31.9365 -23.9975 -31.7315 -24.2285 -31.727 -24.2336L73.2658 68.3759ZM-1.03566 86.2914C-0.641483 86.4303 -0.224227 86.5734 0.214879 86.719C0.656275 86.8653 1.06744 86.9967 1.44358 87.1138C1.81022 87.2278 2.11077 87.318 2.3046 87.3756C2.40033 87.4041 2.47773 87.4269 2.52415 87.4405C2.54798 87.4475 2.56738 87.4532 2.57954 87.4567C2.5911 87.4601 2.60041 87.4628 2.60115 87.463C2.61814 87.468 2.52362 87.4404 2.41344 87.4079C2.28962 87.3713 2.13517 87.3253 1.95754 87.2715C1.78056 87.2178 1.60019 87.1624 1.41662 87.1052C1.23435 87.0483 1.05946 86.993 0.892384 86.9394C0.560556 86.833 0.268987 86.7367 0.026992 86.6556C-0.213664 86.5749 -0.421718 86.5037 -0.58842 86.446C-0.755897 86.388 -0.900186 86.3374 -1.01534 86.2966C-1.13126 86.2556 -1.23061 86.2201 -1.30959 86.1917L46.0612 -45.5505C45.8513 -45.626 45.5506 -45.7332 45.1924 -45.8571C45.0079 -45.921 44.785 -45.9973 44.5318 -46.0822C44.2773 -46.1675 43.9756 -46.2671 43.6354 -46.3762C43.2831 -46.4891 42.9212 -46.6021 42.5497 -46.7147C42.3693 -46.7693 42.2124 -46.8161 42.0863 -46.8533C41.9739 -46.8865 41.8773 -46.9147 41.8924 -46.9103C41.8927 -46.9102 41.9015 -46.9076 41.9126 -46.9044C41.9243 -46.901 41.9432 -46.8954 41.9666 -46.8886C42.0122 -46.8752 42.0887 -46.8527 42.1836 -46.8245C42.3757 -46.7674 42.6746 -46.6777 43.0395 -46.5641C43.414 -46.4476 43.8235 -46.3167 44.2631 -46.171C44.7004 -46.0261 45.1158 -45.8836 45.5079 -45.7454L-1.03566 86.2914ZM-1.10604 86.2645C-2.29279 85.8419 -3.20614 85.4793 -3.5036 85.3609C-3.92127 85.1946 -4.25453 85.0572 -4.44759 84.9771C-4.83476 84.8163 -5.13412 84.6878 -5.26613 84.6309C-5.5533 84.5072 -5.76321 84.4143 -5.82935 84.3849C-5.99453 84.3117 -6.08445 84.2708 -6.08873 84.2688C-6.1081 84.26 -6.11813 84.2554 -6.12984 84.25C-6.1381 84.2461 -6.19032 84.2219 -6.28418 84.1772L53.9396 -42.2075C53.1347 -42.5911 52.3895 -42.9344 51.8443 -43.1822C51.5664 -43.3085 51.2402 -43.4556 50.8998 -43.6065C50.746 -43.6746 50.4637 -43.7993 50.1224 -43.9463C49.9634 -44.0149 49.6415 -44.1529 49.2368 -44.321C49.0349 -44.4048 48.6941 -44.5453 48.2702 -44.714C47.9664 -44.8349 47.0481 -45.1995 45.8577 -45.6234L-1.10604 86.2645ZM-6.28418 84.1772C-6.14147 84.2452 -5.96493 84.3302 -5.7976 84.4114C-5.71811 84.45 -5.65598 84.4803 -5.61807 84.4988C-5.59934 84.508 -5.59246 84.5114 -5.59695 84.5092C-5.59726 84.509 -5.62969 84.4931 -5.68472 84.4658L56.4163 -41.0071C55.8586 -41.2831 54.8782 -41.7602 53.9396 -42.2075L-6.28418 84.1772ZM-5.68388 84.4663C-7.05418 83.7881 -8.13251 83.1863 -8.10773 83.1999C-8.08946 83.21 -8.01586 83.2507 -7.92572 83.3001C-7.83479 83.35 -7.67797 83.4358 -7.48378 83.5407C-7.18022 83.7046 -6.3361 84.1588 -5.24257 84.7002C-4.36041 85.1369 -1.91956 86.3324 1.32922 87.5471C3.01837 88.1787 5.70565 89.1116 9.09061 89.9466C12.2454 90.7248 17.8515 91.8869 24.9551 91.9791L26.7721 -48.0091C33.8709 -47.917 39.4715 -46.7557 42.6197 -45.9791C45.9982 -45.1458 48.6781 -44.2152 50.359 -43.5867C53.5912 -42.3783 56.0118 -41.1919 56.8699 -40.7671C57.9394 -40.2377 58.7556 -39.7981 59.0271 -39.6514C59.2053 -39.5552 59.3451 -39.4787 59.418 -39.4387C59.4574 -39.4171 59.4888 -39.3998 59.5081 -39.3892C59.5271 -39.3787 59.5407 -39.3712 59.5427 -39.3701C59.5784 -39.3504 59.109 -39.6109 58.5588 -39.9048C57.9667 -40.2212 57.2458 -40.5966 56.4154 -41.0075L-5.68388 84.4663ZM-44.0848 24.6722C-44.0848 24.6714 -44.0859 24.6434 -44.0873 24.6069C-44.0887 24.5683 -44.0909 24.5094 -44.0934 24.4371C-44.0984 24.2927 -44.1054 24.0763 -44.1121 23.8128C-44.1258 23.2714 -44.1378 22.5467 -44.1329 21.6909C-44.1225 19.8922 -44.0409 18.037 -43.8748 16.1377L95.5931 28.3315C95.9875 23.8207 95.8502 20.2928 95.812 19.2977L-44.0848 24.6722ZM-43.8755 16.1456C-43.374 10.4021 -42.1434 4.878 -40.2491 -0.366017L91.4235 47.1981C93.6449 41.0484 95.039 34.6784 95.5938 28.3237L-43.8755 16.1456ZM-40.2439 -0.380378C-36.9108 -9.60117 -32.4067 -15.8484 -30.8071 -18.0106C-28.5661 -21.0398 -26.4231 -23.4115 -24.7278 -25.1397C-21.3909 -28.5413 -17.463 -31.8155 -12.8698 -34.7223L61.9964 83.5784C67.116 80.3385 71.5158 76.6691 75.213 72.9003C76.4989 71.5894 85.9358 62.3792 91.4183 47.2125L-40.2439 -0.380378ZM-12.8698 -34.7223C-8.94339 -37.2071 -5.43105 -38.8479 -2.80686 -39.9241C-1.39341 -40.5037 0.309725 -41.1436 2.28039 -41.7673C3.60417 -42.1864 7.61139 -43.434 12.9611 -44.2218L33.3568 94.2846C42.1301 92.9927 48.723 90.259 50.3123 89.6072C53.4478 88.3214 57.5436 86.3963 61.9964 83.5784L-12.8698 -34.7223ZM12.955 -44.2209C17.8966 -44.949 28.7198 -45.9588 41.6388 -41.9022L-0.302207 91.6678C14.4773 96.3086 26.9946 95.222 33.3629 94.2837L12.955 -44.2209ZM41.6318 -41.9044C41.6296 -41.9051 42.2126 -41.7234 42.9964 -41.4451C43.8099 -41.1561 44.6909 -40.8174 45.603 -40.429L-9.24767 88.3786C-5.17771 90.1118 -1.91629 91.1612 -0.295214 91.67L41.6318 -41.9044ZM45.6378 -40.4141C51.0393 -38.1105 55.043 -35.4471 57.6686 -33.4486C60.3411 -31.4145 62.342 -29.4913 63.7441 -28.015L-37.7675 68.3976C-33.0577 73.3565 -23.5923 82.2611 -9.28255 88.3638L45.6378 -40.4141ZM63.744 -28.0152C65.1409 -26.5443 66.2071 -25.2359 66.9652 -24.2497L-44.0292 61.0746C-42.5402 63.0115 -40.4466 65.5768 -37.7674 68.3977L63.744 -28.0152ZM66.9656 -24.2492C67.1664 -23.988 67.367 -23.7214 67.5648 -23.4533C67.7637 -23.1836 67.9233 -22.9617 68.0214 -22.8243C68.0628 -22.7663 68.0919 -22.7253 68.0757 -22.748C68.0746 -22.7497 68.0486 -22.7864 68.0275 -22.816C68.0028 -22.8508 67.9621 -22.9081 67.9134 -22.9764C67.8218 -23.1049 67.6498 -23.3454 67.435 -23.6402C67.2175 -23.9387 66.9095 -24.3568 66.5347 -24.8498L-44.9124 59.8825C-45.2539 59.4332 -45.5279 59.061 -45.7099 58.8112C-45.8891 58.5652 -46.024 58.3764 -46.0763 58.3031C-46.1198 58.2421 -46.1628 58.1814 -46.1134 58.2511C-46.085 58.291 -46.0086 58.3988 -45.9162 58.5282C-45.716 58.8085 -45.4399 59.192 -45.1044 59.6469C-44.7701 60.1003 -44.4128 60.5756 -44.0295 61.0741L66.9656 -24.2492ZM66.6451 -24.7042C68.0726 -22.8164 70.1886 -19.821 72.2624 -15.7479C73.3494 -13.6129 74.8743 -10.3075 76.2041 -6.0302C77.484 -1.91322 79.1304 4.8368 79.1304 13.3866H-60.8696C-60.8696 30.7861 -54.6327 43.5798 -52.4976 47.7734C-49.6423 53.3814 -46.686 57.5374 -45.0227 59.7369L66.6451 -24.7042ZM79.1304 13.3866C79.1304 24.1752 76.3851 35.6015 70.3366 46.1332C65.524 54.5128 58.0095 61.915 61.8088 57.8213L-40.8076 -37.4146C-37.4894 -40.9899 -45.689 -32.9532 -51.0663 -23.5901C-57.6797 -12.0749 -60.8696 0.683746 -60.8696 13.3866H79.1304ZM61.8085 57.8216C45.8813 74.983 25.7213 79.8913 11.1411 79.8913V-60.1087C-3.66277 -60.1087 -24.375 -55.1205 -40.8073 -37.4149L61.8085 57.8216Z" fill="black" mask="url(#path-1-inside-1_70_202)"/>
</g>
</svg>
